<?xml version="1.0" encoding="UTF-8"?>
<svg id="a" data-name="Layer 1" xmlns="http://www.w3.org/2000/svg" viewBox="0 0 300 300">
  <rect width="300" height="300" fill="#844cf5"/>
  <path d="M41.29,189.61c63.47,69.39,154.13,66.82,207.53,17.98,32.57-29.79,48.86-96.69-5.83-137.84-54.69-41.15-93.38,30.38-154.81,20.32-12.68-2.06-29.73,1.25-18.67,16.23,2.1,2.85,4.9,5.11,7.4,7-17.42.61-23.5-.31-34.16-.45-9.64-.43-16.48.09-20.38,4.96-5.11,7.92,8.64,20.19,21.1,30.76,7.19,6.89,14.49,16.18,19.17,23.93-5.63-1.15-6.99-1.46-15.4-2.33-13.41-1.38-23.36.39-5.93,19.44h0Z" fill="#fff"/>
  <path d="M214.94,143.66c-8.66.69-10.78-9.55-11.27-15.71-.45-5.57.19-10.07,1.86-13.03,1.47-2.6,3.74-4.04,6.76-4.29,3.03-.25,5.72.82,7.75,3.18,2.31,2.69,3.77,7,4.21,12.48.83,10.34-2.65,16.83-9.31,17.36h0Z"/>
  <path d="M250.54,140.8c-8.66.69-10.78-9.55-11.27-15.71-.45-5.57.19-10.06,1.86-13.03,1.46-2.6,3.74-4.04,6.76-4.29,3.03-.24,5.72.82,7.75,3.18,2.31,2.69,3.77,7,4.21,12.48.83,10.34-2.65,16.83-9.31,17.36h0Z"/>
</svg>