<?xml version="1.0" encoding="UTF-8"?>
<svg id="a" data-name="Layer 1" xmlns="http://www.w3.org/2000/svg" viewBox="0 0 300 300">
  <rect width="300" height="300" fill="#844cf5"/>
  <path d="M89.92,215.47c-24.63,54.57,27.81,68.26,66.49,36.32,11.36,35.82,54.02,9.1,69.32-18.65,33.72-61.15,20.1-123.54,16.61-136.4-23.97-87.75-143.77-87.84-164.39.45-4.81,15.45-4.9,33.02-7.63,51.27-1.38,9.2-2.34,15.07-5.9,24.75-2.05,5.56-4.86,10.5-9.29,18.83-8.74,13.37.16,40.69,34.8,23.43h0Z" fill="#fff"/>
  <g>
    <path d="M161.3,134.18c-9.83,0-11.3-11.75-11.3-18.76,0-6.32,1.13-11.35,3.28-14.53,1.89-2.8,4.59-4.22,8.02-4.22s6.38,1.44,8.46,4.29c2.37,3.25,3.62,8.25,3.62,14.46,0,11.75-4.52,18.76-12.08,18.76h0Z"/>
    <path d="M201.74,134.18c-9.83,0-11.3-11.75-11.3-18.76,0-6.32,1.13-11.35,3.28-14.53,1.89-2.8,4.59-4.22,8.02-4.22s6.38,1.44,8.46,4.29c2.37,3.25,3.62,8.25,3.62,14.46,0,11.75-4.52,18.76-12.08,18.76h0Z"/>
  </g>
</svg>